<svg width="24" height="24" viewBox="0 0 24 24" fill="none" xmlns="http://www.w3.org/2000/svg">
<g clip-path="url(#clip0_928_5467)">
<path d="M12 24C18.6166 24 24 18.6166 24 12C24 5.38336 18.6166 0 12 0C5.38336 0 0 5.38336 0 12C0 18.6166 5.38336 24 12 24ZM12 1.19902C17.956 1.19902 22.801 6.04405 22.801 12C22.801 17.956 17.956 22.801 12 22.801C6.04405 22.801 1.19902 17.956 1.19902 12C1.19902 6.04405 6.04405 1.19902 12 1.19902Z" fill="black"/>
<path d="M6.36257 12.4256L9.73451 15.7975C9.96942 16.0324 10.3463 16.0324 10.5812 15.7975C10.8161 15.5626 10.8161 15.1858 10.5812 14.9508L8.23206 12.6017L17.2125 12.6017C17.5453 12.6017 17.8145 12.3326 17.8145 11.9998C17.8145 11.667 17.5453 11.3978 17.2125 11.3978L8.23696 11.3978L10.5861 9.04872C10.821 8.81381 10.821 8.43697 10.5861 8.20206C10.3512 7.96715 9.97432 7.96715 9.73941 8.20206L6.36746 11.574C6.25001 11.6915 6.19128 11.8432 6.19128 11.9998C6.19128 12.1564 6.24512 12.3081 6.36257 12.4256Z" fill="black"/>
</g>
<defs>
<clipPath id="clip0_928_5467">
<rect width="24" height="24" fill="white" transform="translate(24) rotate(90)"/>
</clipPath>
</defs>
</svg>
