<svg width="24" height="24" viewBox="0 0 24 24" fill="none" xmlns="http://www.w3.org/2000/svg">
<g clip-path="url(#clip0_928_5472)">
<path d="M12 0C5.38336 0 0 5.38336 0 12C0 18.6166 5.38336 24 12 24C18.6166 24 24 18.6166 24 12C24 5.38336 18.6166 0 12 0ZM12 22.801C6.04405 22.801 1.19902 17.956 1.19902 12C1.19902 6.04405 6.04405 1.19902 12 1.19902C17.956 1.19902 22.801 6.04405 22.801 12C22.801 17.956 17.956 22.801 12 22.801Z" fill="black"/>
<path d="M17.6374 11.5744L14.2655 8.2025C14.0306 7.96758 13.6537 7.96758 13.4188 8.2025C13.1839 8.43741 13.1839 8.81424 13.4188 9.04915L15.7679 11.3983H6.7875C6.45471 11.3983 6.18555 11.6674 6.18555 12.0002C6.18555 12.333 6.45471 12.6022 6.7875 12.6022H15.763L13.4139 14.9513C13.179 15.1862 13.179 15.563 13.4139 15.7979C13.6488 16.0328 14.0257 16.0328 14.2606 15.7979L17.6325 12.426C17.75 12.3085 17.8087 12.1568 17.8087 12.0002C17.8087 11.8436 17.7549 11.6919 17.6374 11.5744Z" fill="black"/>
</g>
<defs>
<clipPath id="clip0_928_5472">
<rect width="24" height="24" fill="white" transform="translate(0 24) rotate(-90)"/>
</clipPath>
</defs>
</svg>
