<svg width="14" height="14" viewBox="0 0 14 14" fill="none" xmlns="http://www.w3.org/2000/svg">
<g clip-path="url(#clip0_4107_314)">
<path d="M0.874831 0.952509C-0.225335 2.09526 -0.000168599 3.30918 -0.000168599 6.99701C-0.000168599 10.0595 -0.534502 13.1296 2.262 13.8523C3.13525 14.0769 10.8726 14.0769 11.7447 13.8512C12.909 13.5508 13.8563 12.6063 13.9858 10.9596C14.0039 10.7298 14.0039 3.26834 13.9852 3.03384C13.8476 1.27976 12.7678 0.268842 11.3451 0.064092C11.019 0.016842 10.9537 0.00284201 9.28066 -7.46604e-05C3.34641 0.00284201 2.04558 -0.261408 0.874831 0.952509Z" fill="url(#paint0_linear_4107_314)"/>
<path d="M6.9984 1.83116C4.88032 1.83116 2.86898 1.64274 2.10073 3.61441C1.7834 4.42874 1.82948 5.48633 1.82948 7.00066C1.82948 8.32949 1.7869 9.57841 2.10073 10.3863C2.86723 12.3592 4.8949 12.1702 6.99723 12.1702C9.02548 12.1702 11.1167 12.3813 11.8943 10.3863C12.2122 9.56383 12.1656 8.52199 12.1656 7.00066C12.1656 4.98116 12.277 3.67741 11.2976 2.69858C10.3059 1.70691 8.96482 1.83116 6.99607 1.83116H6.9984ZM6.53523 2.76274C10.9534 2.75574 11.5157 2.26458 11.2054 9.08783C11.0951 11.5011 9.25765 11.2362 6.99898 11.2362C2.88065 11.2362 2.76223 11.1184 2.76223 6.99833C2.76223 2.83041 3.0889 2.76508 6.53523 2.76158V2.76274ZM9.75757 3.62083C9.41515 3.62083 9.13748 3.89849 9.13748 4.24091C9.13748 4.58333 9.41515 4.86099 9.75757 4.86099C10.1 4.86099 10.3776 4.58333 10.3776 4.24091C10.3776 3.89849 10.1 3.62083 9.75757 3.62083ZM6.9984 4.34591C5.53248 4.34591 4.34423 5.53474 4.34423 7.00066C4.34423 8.46658 5.53248 9.65483 6.9984 9.65483C8.46432 9.65483 9.65198 8.46658 9.65198 7.00066C9.65198 5.53474 8.46432 4.34591 6.9984 4.34591ZM6.9984 5.27749C9.27632 5.27749 9.27923 8.72383 6.9984 8.72383C4.72107 8.72383 4.71757 5.27749 6.9984 5.27749Z" fill="white"/>
</g>
<defs>
<linearGradient id="paint0_linear_4107_314" x1="0.901676" y1="13.1057" x2="13.9132" y2="1.84441" gradientUnits="userSpaceOnUse">
<stop stop-color="#FFDD55"/>
<stop offset="0.5" stop-color="#FF543E"/>
<stop offset="1" stop-color="#C837AB"/>
</linearGradient>
<clipPath id="clip0_4107_314">
<rect width="14" height="14" fill="white"/>
</clipPath>
</defs>
</svg>
