<svg width="200" height="32" viewBox="0 0 200 32" fill="none" xmlns="http://www.w3.org/2000/svg">
<g clip-path="url(#clip0_4107_967)">
<path d="M0 19.8325L0.878193 18.9317C1.59246 19.7244 2.47431 20.3614 3.4649 20.8002C4.45548 21.239 5.532 21.4695 6.62257 21.4763C9.60731 21.4763 11.4888 19.9367 11.4888 17.6968C11.4888 15.3474 9.89634 14.5989 7.97043 13.765L5.00236 12.498C3.29878 11.7763 1.03382 10.6056 1.03382 7.82045C1.03382 5.08875 3.46831 3.18564 6.71984 3.18564C7.7406 3.18065 8.75163 3.37655 9.69076 3.76129C10.6299 4.14603 11.4773 4.71148 12.1808 5.42286L11.3915 6.29689C10.799 5.67842 10.0779 5.18674 9.27497 4.8538C8.47204 4.52086 7.60526 4.35412 6.73096 4.36439C4.14918 4.36439 2.41503 5.70084 2.41503 7.7269C2.41503 9.92403 4.36039 10.75 5.79996 11.3567L8.75691 12.6263C10.9496 13.5645 12.8755 14.7272 12.8755 17.6033C12.8755 20.4793 10.4105 22.6684 6.61701 22.6684C5.36595 22.6872 4.1257 22.4432 2.98283 21.9534C1.83995 21.4636 0.821991 20.7398 0 19.8325Z" fill="white"/>
<path d="M15.7129 12.883C15.7129 6.91711 19.095 3.17236 24.0696 3.17236C25.0357 3.1747 25.99 3.37662 26.8679 3.76444C27.7458 4.15227 28.5268 4.71695 29.1581 5.42028L28.355 6.29966C27.8334 5.69566 27.1802 5.20925 26.4416 4.87485C25.703 4.54044 24.8971 4.36622 24.0807 4.36448C19.7954 4.36448 17.133 7.64681 17.133 12.867C17.133 18.0872 19.7565 21.4764 23.9585 21.4764C25.9761 21.4764 27.4851 20.6745 28.9025 19.1563L29.7028 19.9796C28.2049 21.6528 26.4346 22.6685 23.8862 22.6685C19.0784 22.6685 15.7129 18.8596 15.7129 12.883Z" fill="white"/>
<path d="M33.7104 3.51416H35.075V11.7574H45.5299V3.51416H46.8945V22.3261H45.5299V12.9041H35.075V22.3261H33.7104V3.51416Z" fill="white"/>
<path d="M51.416 12.859C51.416 6.90641 54.7704 3.17236 59.4754 3.17236C64.1804 3.17236 67.5347 6.91443 67.5347 12.859C67.5347 18.8035 64.1804 22.6685 59.4754 22.6685C54.7704 22.6685 51.416 18.8142 51.416 12.859ZM66.0952 12.859C66.0952 7.64146 63.4411 4.36448 59.4698 4.36448C55.4985 4.36448 52.8472 7.64146 52.8472 12.859C52.8472 18.0765 55.4985 21.4764 59.4698 21.4764C63.4411 21.4764 66.0952 18.0792 66.0952 12.859Z" fill="white"/>
<path d="M70.7666 12.859C70.7666 6.90641 74.121 3.17236 78.826 3.17236C83.531 3.17236 86.8853 6.91443 86.8853 12.859C86.8853 18.8035 83.531 22.6685 78.826 22.6685C74.121 22.6685 70.7666 18.8142 70.7666 12.859ZM85.4458 12.859C85.4458 7.64146 82.7917 4.36448 78.8204 4.36448C74.8491 4.36448 72.209 7.64146 72.209 12.859C72.209 18.0765 74.8602 21.4764 78.8315 21.4764C82.8028 21.4764 85.4458 18.0792 85.4458 12.859Z" fill="white"/>
<path d="M91.3848 3.51416H92.7493V21.1954H101.751V22.3261H91.3848V3.51416Z" fill="white"/>
<path d="M103.382 19.982L105.883 17.0952C107.259 18.2473 109.043 19.0384 110.635 19.0384C112.461 19.0384 113.353 18.3488 113.353 17.2423C113.353 16.0715 112.242 15.6973 110.574 15.0291L108.073 13.9973C106.069 13.2142 104.182 11.6292 104.182 8.91883C104.182 5.8343 107.047 3.37256 111.074 3.37256C113.391 3.38491 115.612 4.26062 117.272 5.8156L115.062 8.46712C113.79 7.52626 112.578 7.01038 111.049 7.01038C109.521 7.01038 108.582 7.61446 108.582 8.67827C108.582 9.8196 109.846 10.2339 111.533 10.8808L113.998 11.8403C116.36 12.7598 117.836 14.2727 117.836 16.9001C117.836 19.99 115.157 22.6682 110.549 22.6682C107.896 22.6619 105.34 21.7041 103.382 19.982Z" fill="white"/>
<path d="M120.221 13.1314C120.221 6.95695 124.464 3.37793 129.353 3.37793C130.44 3.38668 131.514 3.60394 132.513 4.01701C133.512 4.43008 134.415 5.03064 135.169 5.78354L132.863 8.48318C131.893 7.61181 130.848 7.00239 129.45 7.00239C126.796 7.00239 124.701 9.2503 124.701 12.9817C124.701 16.8066 126.551 19.0278 129.381 19.0278C130.967 19.0278 132.218 18.2767 133.163 17.2904L135.47 19.9285C134.706 20.8034 133.749 21.5028 132.668 21.9755C131.587 22.4482 130.409 22.6822 129.222 22.6603C124.317 22.6683 120.221 19.3966 120.221 13.1314Z" fill="white"/>
<path d="M166.673 13.7035V3.72021H171.045V14.1445C171.045 17.7877 172.24 19.0466 174.405 19.0466C176.57 19.0466 177.831 17.7877 177.831 14.1445V3.72021H182.047V13.7035C182.047 19.9501 179.41 22.6684 174.405 22.6684C169.4 22.6684 166.673 19.9501 166.673 13.7035Z" fill="white"/>
<path d="M190.301 7.24844H184.977V3.72021H200V7.24844H194.676V22.3263H190.301V7.24844Z" fill="white"/>
<path d="M164.475 25.0611L161.112 21.8269C163.414 19.3169 164.633 16.0568 164.52 12.7119C164.407 9.36698 162.971 6.18953 160.506 3.82812C158.04 1.46671 154.73 0.0993708 151.252 0.00520646C147.774 -0.0889579 144.389 1.09715 141.789 3.32142C139.19 5.5457 137.57 8.64043 137.262 11.9739C136.954 15.3075 137.98 18.6284 140.131 21.2589C142.283 23.8894 145.396 25.6312 148.837 26.1287C152.278 26.6262 155.787 25.8418 158.647 23.9358L162.146 27.2983C162.454 27.5954 162.873 27.7624 163.309 27.7626C163.746 27.7629 164.165 27.5964 164.473 27.2997C164.782 27.003 164.956 26.6005 164.956 26.1807C164.956 25.7609 164.783 25.3582 164.475 25.0611ZM151.077 25.8095C148.623 25.8095 146.224 25.1096 144.183 23.7982C142.142 22.4868 140.552 20.6229 139.613 18.4422C138.674 16.2614 138.428 13.8618 138.907 11.5467C139.385 9.23166 140.567 7.10513 142.303 5.43606C144.038 3.76699 146.249 2.63034 148.656 2.16984C151.063 1.70935 153.558 1.94569 155.825 2.84898C158.093 3.75228 160.031 5.28195 161.394 7.24457C162.758 9.20719 163.485 11.5146 163.485 13.875C163.481 17.0387 162.171 20.0712 159.843 22.3065C157.516 24.5417 154.361 25.7969 151.071 25.7962L151.077 25.8095Z" fill="white"/>
<path d="M148.634 4.37319L147.48 4.9345C147.522 4.85888 147.587 4.79735 147.667 4.75809L148.82 4.19678C148.741 4.23604 148.676 4.29757 148.634 4.37319Z" fill="#855D13"/>
<path d="M154.581 22.4091L153.425 22.9704C153.338 23.0076 153.242 23.0201 153.148 23.0064C153.054 22.9927 152.966 22.9533 152.894 22.8929L154.05 22.3315C154.122 22.3919 154.21 22.4313 154.304 22.4451C154.398 22.4588 154.494 22.4463 154.581 22.4091Z" fill="#855D13"/>
<path d="M143.473 13.6845L142.317 14.2484L147.469 4.93338L148.623 4.37207L143.473 13.6845Z" fill="#885F13"/>
<path d="M154.05 22.3313L152.894 22.8926L142.531 15.053L143.687 14.4917L154.05 22.3313Z" fill="#845D13"/>
<path d="M143.465 14.2004L142.309 14.7644C142.269 14.6837 142.249 14.5956 142.249 14.5065C142.249 14.4174 142.269 14.3293 142.309 14.2486L143.462 13.6846C143.423 13.7655 143.403 13.8535 143.403 13.9425C143.403 14.0315 143.423 14.1195 143.462 14.2004" fill="#855D13"/>
<path d="M143.687 14.4915L142.534 15.0529C142.434 14.9768 142.357 14.8774 142.309 14.7642L143.465 14.2002C143.511 14.3145 143.588 14.415 143.687 14.4915Z" fill="#855D13"/>
<path d="M143.465 14.2004C143.426 14.1194 143.406 14.0315 143.406 13.9424C143.406 13.8534 143.426 13.7655 143.465 13.6845L148.634 4.37211C148.668 4.31376 148.716 4.26374 148.773 4.22591C148.831 4.18808 148.897 4.16344 148.966 4.15389C149.035 4.14434 149.105 4.15013 149.171 4.17081C149.238 4.1915 149.298 4.22653 149.348 4.27322L159.714 12.1128C159.813 12.1887 159.89 12.2882 159.936 12.4015C159.975 12.4825 159.995 12.5704 159.995 12.6595C159.995 12.7485 159.975 12.8364 159.936 12.9174L154.784 22.2298C154.75 22.2883 154.702 22.3386 154.645 22.3767C154.587 22.4148 154.522 22.4397 154.453 22.4495C154.384 22.4593 154.313 22.4538 154.247 22.4333C154.181 22.4128 154.12 22.3779 154.07 22.3313L143.687 14.4917C143.587 14.4152 143.511 14.3146 143.465 14.2004Z" fill="#FCB124"/>
<path d="M151.116 14.131C151.43 14.131 151.685 13.8857 151.685 13.5831C151.685 13.2805 151.43 13.0352 151.116 13.0352C150.801 13.0352 150.546 13.2805 150.546 13.5831C150.546 13.8857 150.801 14.131 151.116 14.131Z" fill="#1C1C1B"/>
<path d="M151.691 28.7303C151.704 28.77 151.728 28.8053 151.761 28.8319C151.784 28.8528 151.812 28.8689 151.842 28.8795C151.872 28.89 151.903 28.8946 151.935 28.8932C151.967 28.8917 151.998 28.884 152.027 28.8708C152.056 28.8575 152.082 28.8388 152.103 28.8158C153.464 27.3725 154.351 26.1937 154.982 24.9989C155.753 23.593 156.117 22.0133 156.035 20.4256C155.86 17.2876 154.12 14.5452 151.494 13.2515C151.465 13.2341 151.433 13.2227 151.4 13.2179C151.366 13.2131 151.332 13.2151 151.299 13.2237C151.266 13.2323 151.236 13.2474 151.21 13.268C151.183 13.2886 151.162 13.3142 151.146 13.3432C151.131 13.3723 151.122 13.4041 151.12 13.4367C151.118 13.4692 151.123 13.5018 151.134 13.5324C151.146 13.563 151.165 13.5909 151.188 13.6143C151.212 13.6378 151.24 13.6562 151.272 13.6685C153.745 14.882 155.382 17.48 155.549 20.4496C155.732 23.7774 153.828 26.2873 151.741 28.5031C151.714 28.5337 151.694 28.5707 151.686 28.6104C151.677 28.6502 151.679 28.6915 151.691 28.7303Z" fill="white"/>
<path d="M150.991 28.4582C150.489 28.7814 150.03 29.162 149.623 29.5915C149.382 29.8347 149.101 30.0405 148.868 30.2918C148.746 30.4142 148.652 30.5587 148.59 30.7168C148.484 31.0696 148.759 31.0081 148.998 30.9039C148.879 30.9573 148.848 31.238 148.929 31.3289C149.009 31.4198 149.29 31.3663 149.409 31.5427C149.56 31.7619 149.51 32.104 149.874 31.9196C150.571 31.5641 151.071 30.9092 151.51 30.2971C151.805 29.8855 152.583 29.0516 152.308 28.5036C152.258 28.3911 152.171 28.2973 152.061 28.2361C151.951 28.1749 151.823 28.1496 151.697 28.1642C151.552 28.1852 151.413 28.2314 151.285 28.3005C151.184 28.348 151.086 28.4007 150.991 28.4582Z" fill="#F5B314"/>
<path d="M159.105 23.5586L160.638 22.0844L164.059 25.3749C164.263 25.5704 164.377 25.8355 164.377 26.112C164.377 26.3885 164.263 26.6536 164.059 26.8491C163.856 27.0446 163.581 27.1545 163.293 27.1545C163.006 27.1545 162.73 27.0446 162.527 26.8491L159.105 23.5586Z" fill="#F5B314"/>
</g>
<defs>
<clipPath id="clip0_4107_967">
<rect width="200" height="31.972" fill="white"/>
</clipPath>
</defs>
</svg>
