<svg width="14" height="14" viewBox="0 0 14 14" fill="none" xmlns="http://www.w3.org/2000/svg">
<g clip-path="url(#clip0_4107_319)">
<path d="M11.4959 13.7603C8.50166 14.0799 5.49834 14.0799 2.50409 13.7603C1.31015 13.6329 0.367111 12.6898 0.239685 11.4958C-0.079895 8.50156 -0.079895 5.49834 0.239685 2.50409C0.367111 1.31015 1.31015 0.367111 2.50409 0.239685C5.49834 -0.079895 8.50156 -0.079895 11.4958 0.239685C12.6898 0.367111 13.6329 1.31015 13.7603 2.50409C14.0799 5.49834 14.0799 8.50156 13.7603 11.4958C13.6329 12.6898 12.69 13.6329 11.4959 13.7603Z" fill="url(#paint0_linear_4107_319)"/>
<path d="M12.9985 3.01038C12.8855 1.95092 12.0487 1.11405 10.9892 1.00094C8.33213 0.717461 5.66718 0.717461 3.01014 1.00094C1.95068 1.11405 1.11381 1.95092 1.00069 3.01038C0.717216 5.66743 0.717216 8.33238 1.00069 10.9893C1.11381 12.0489 1.95068 12.8858 3.01014 12.9988C5.66718 13.2823 8.33213 13.2823 10.9891 12.9988C12.0486 12.8858 12.8855 12.0489 12.9985 10.9893C13.2821 8.33238 13.2821 5.66743 12.9985 3.01038Z" fill="url(#paint1_linear_4107_319)"/>
<path d="M0.209961 11.2056C0.219574 11.3023 0.229507 11.3991 0.239868 11.4959C0.367294 12.6898 1.31033 13.6329 2.50438 13.7603C5.49863 14.0799 8.50185 14.0799 11.4961 13.7603C12.6901 13.6329 13.6331 12.6898 13.7605 11.4959C13.7709 11.3991 13.7808 11.3023 13.7905 11.2056H0.209961Z" fill="url(#paint2_linear_4107_319)"/>
<path d="M13.997 6.50806L11.091 3.60214C10.7654 3.78831 10.4783 3.8916 10.2622 3.94885C10.1406 3.98143 10.0414 3.99916 9.97003 4.00888C9.64233 3.67296 9.18475 3.46436 8.67825 3.46436C7.6817 3.46436 6.87367 4.27228 6.87367 5.26904C6.87367 5.30504 6.87463 5.34061 6.87698 5.37607C6.88179 5.46248 6.89279 5.54739 6.90978 5.62996C6.49374 5.62376 5.14151 5.51268 3.85187 4.40718C3.85176 4.40718 3.85176 4.40707 3.85176 4.40707H3.85165L3.24347 3.79878C3.24347 3.79878 2.52997 5.0441 3.57896 5.98906C3.625 6.04044 3.67563 6.09117 3.73106 6.14105C3.73544 6.14597 3.74004 6.15077 3.74442 6.15569C3.60674 6.14639 3.19263 6.10516 2.95294 5.93587C2.95294 5.93587 2.90477 6.69701 3.53891 7.25734L4.05096 7.77377C3.89502 7.7867 3.72252 7.7836 3.60257 7.73105C3.60257 7.73105 3.70874 8.1819 4.11911 8.54271L4.83646 9.26379C4.40611 9.51448 3.65277 9.82819 2.66113 9.74808L7.01274 14C8.50789 13.9996 10.003 13.9197 11.4959 13.7603C12.69 13.6329 13.633 12.6899 13.7605 11.4959C13.9377 9.83502 14.0164 8.17133 13.997 6.50806Z" fill="url(#paint3_linear_4107_319)"/>
<path d="M11.3391 4.30304C11.0294 4.46507 10.5628 4.53995 10.4082 4.56152C10.4069 4.55405 10.4056 4.54689 10.4043 4.53973C10.9302 4.21449 11.0911 3.60214 11.0911 3.60214C10.7655 3.78831 10.4785 3.8916 10.2623 3.94885C10.1407 3.98143 10.0415 3.99905 9.97014 4.00888C9.64244 3.67285 9.18486 3.46436 8.67836 3.46436C7.68181 3.46436 6.87378 4.27217 6.87378 5.26904C6.87378 5.30493 6.87474 5.34061 6.87709 5.37596C6.8819 5.46237 6.8929 5.54729 6.90988 5.62985C6.42752 5.6227 4.68639 5.47476 3.24358 3.79878C3.24358 3.79878 2.44014 5.20058 3.79088 6.15814C3.79088 6.15814 3.24358 6.14105 2.95305 5.93587C2.95305 5.93587 2.8676 7.28661 4.42331 7.71385C4.42331 7.71385 3.87633 7.85078 3.60257 7.73105C3.60257 7.73105 3.87622 8.89359 5.24394 8.97925C5.24394 8.97925 4.26299 9.87732 2.66113 9.74808C3.44897 10.2469 4.38304 10.5356 5.38451 10.5356C8.20038 10.5356 10.4832 8.25293 10.4832 5.43706C10.4832 5.40192 10.4828 5.36678 10.4821 5.33163C10.4828 5.31081 10.4832 5.29008 10.4832 5.26904C10.4832 5.25441 10.4828 5.23978 10.4826 5.22514C11.0032 4.87822 11.3391 4.30304 11.3391 4.30304Z" fill="white"/>
</g>
<defs>
<linearGradient id="paint0_linear_4107_319" x1="4.64827" y1="1.96837" x2="8.18927" y2="9.54447" gradientUnits="userSpaceOnUse">
<stop stop-color="#00C3FF"/>
<stop offset="1" stop-color="#00B0ED"/>
</linearGradient>
<linearGradient id="paint1_linear_4107_319" x1="9.96051" y1="8.58821" x2="-10.3797" y2="-2.32301" gradientUnits="userSpaceOnUse">
<stop stop-color="#00B0ED" stop-opacity="0"/>
<stop offset="1" stop-color="#00A2CE"/>
</linearGradient>
<linearGradient id="paint2_linear_4107_319" x1="7.00019" y1="11.9597" x2="7.00019" y2="13.7941" gradientUnits="userSpaceOnUse">
<stop stop-color="#00B0ED" stop-opacity="0"/>
<stop offset="1" stop-color="#00A2CE"/>
</linearGradient>
<linearGradient id="paint3_linear_4107_319" x1="13.3826" y1="13.1817" x2="6.54322" y2="6.34228" gradientUnits="userSpaceOnUse">
<stop stop-color="#00B0ED" stop-opacity="0"/>
<stop offset="1" stop-color="#00A2CE"/>
</linearGradient>
<clipPath id="clip0_4107_319">
<rect width="14" height="14" fill="white"/>
</clipPath>
</defs>
</svg>
